<svg height="512pt" viewBox="0 0 512.00853 512" width="512pt" xmlns="http://www.w3.org/2000/svg"><path d="m503.464844 68.269531h-137.035156c-4.265626-38.339843-36.828126-68.26562475-76.296876-68.26562475h-68.265624c-39.457032 0-72.03125 29.92578175-76.296876 68.26562475h-137.035156c-4.710937 0-8.535156 3.824219-8.535156 8.535157 0 4.710937 3.824219 8.53125 8.535156 8.53125h52.007813l36.6875 366.839843c3.410156 34.109375 31.828125 59.828125 66.105469 59.828125h185.328124c34.277344 0 62.703126-25.71875 66.117188-59.828125l36.683594-366.839843h52.011718c4.710938 0 8.53125-3.820313 8.53125-8.53125 0-4.710938-3.832031-8.535157-8.542968-8.535157zm-281.597656-51.199219h68.265624c30.046876 0 54.972657 22.289063 59.128907 51.199219h-186.515625c4.148437-28.910156 29.082031-51.199219 59.121094-51.199219zm-33.339844 418.101563c-.273438.023437-.539063.03125-.800782.03125-4.355468 0-8.074218-3.316406-8.492187-7.738281l-25.601563-273.066406c-.433593-4.695313 3.011719-8.851563 7.699219-9.292969 4.699219-.476563 8.855469 3.011719 9.292969 7.695312l25.597656 273.066407c.445313 4.703124-3.003906 8.859374-7.695312 9.304687zm76.007812-8.5c0 4.710937-3.824218 8.53125-8.535156 8.53125s-8.535156-3.820313-8.535156-8.53125v-273.066406c0-4.710938 3.824218-8.535157 8.535156-8.535157s8.535156 3.824219 8.535156 8.535157zm68.222656.792969c-.410156 4.421875-4.128906 7.738281-8.484374 7.738281-.261719 0-.535157-.007813-.808594-.03125-4.695313-.445313-8.140625-4.601563-7.699219-9.292969l25.601563-273.066406c.445312-4.695312 4.582031-8.160156 9.292968-7.699219 4.695313.445313 8.140625 4.601563 7.695313 9.292969zm0 0"/></svg>